<?xml version="1.0" encoding="UTF-8"?>
<svg version="1.1" xmlns="http://www.w3.org/2000/svg" width="512" height="512">
<path d="M0 0 C0.77279297 -0.00979385 1.54558594 -0.01958771 2.34179688 -0.02967834 C19.16113485 -0.19898003 35.30959901 -0.09673609 51.6796875 4.23828125 C52.50984375 4.44727051 53.34 4.65625977 54.1953125 4.87158203 C84.72720307 12.68601338 110.04850089 28.71350821 132.6796875 50.23828125 C133.62908203 51.10839844 133.62908203 51.10839844 134.59765625 51.99609375 C162.71289612 78.57534664 180.31146972 121.04632228 181.80395508 159.43457031 C182.69626355 199.51386215 173.40538062 233.52619832 152.58496094 267.72387695 C148.62015652 274.26317636 144.83910484 280.90599379 141.0546875 287.55078125 C139.65636351 290.00527303 138.25795334 292.45971564 136.859375 294.9140625 C136.50965637 295.52785263 136.15993774 296.14164276 135.79962158 296.77403259 C132.28282046 302.94217445 128.73329622 309.09128223 125.1796875 315.23828125 C119.98718029 324.22362985 114.82287615 333.22465049 109.6796875 342.23828125 C103.92465292 352.32419492 98.13722902 362.39091591 92.32641602 372.44482422 C87.38957065 380.99252685 82.49400908 389.56338412 77.60507202 398.13851929 C72.38114628 407.29773603 67.08678995 416.4139019 61.75756836 425.51220703 C57.28494929 433.16335974 52.91695155 440.86995375 48.57348633 448.5949707 C44.10836404 456.51997125 39.53060623 464.37576827 34.92993164 472.22265625 C30.20808769 480.29197269 25.59207793 488.4178745 21.02929688 496.578125 C18.04778596 501.89315998 14.95285164 507.09731152 11.6796875 512.23828125 C7.34225086 510.79246904 6.38591564 507.51990722 4.3671875 503.67578125 C3.47390595 502.02075558 2.57792844 500.36718304 1.6796875 498.71484375 C1.19757813 497.82700195 0.71546875 496.93916016 0.21875 496.02441406 C-2.47521284 491.14758921 -5.30892251 486.35314821 -8.1328125 481.55078125 C-12.76559536 473.65163856 -17.33320381 465.72107302 -21.8203125 457.73828125 C-26.24863955 449.86188211 -30.75171299 442.03414753 -35.3203125 434.23828125 C-40.44123024 425.49993817 -45.46205244 416.71124501 -50.42578125 407.8828125 C-54.3251064 400.96221846 -58.30407156 394.09160188 -62.3203125 387.23828125 C-67.44123024 378.49993817 -72.46205244 369.71124501 -77.42578125 360.8828125 C-81.3251064 353.96221846 -85.30407156 347.09160188 -89.3203125 340.23828125 C-93.88891458 332.44241059 -98.39176024 324.61455643 -102.8203125 316.73828125 C-108.98569184 305.77635336 -115.31559849 294.91470779 -121.66992188 284.06152344 C-125.08808018 278.21424789 -128.48156065 272.35278454 -131.86328125 266.484375 C-133.38822128 263.83952942 -134.93003123 261.20662158 -136.49609375 258.5859375 C-159.25536737 220.00565425 -166.98055758 173.49381793 -155.99609375 129.8125 C-143.92911058 84.42556969 -116.0542267 46.17427015 -75.33935547 22.390625 C-52.52367339 9.36885724 -26.47030315 0.27857047 0 0 Z M-35.3203125 127.23828125 C-35.95195312 127.85058594 -36.58359375 128.46289062 -37.234375 129.09375 C-49.10105634 141.35250231 -52.83935351 157.53330585 -52.74023438 174.04077148 C-52.32046925 189.87479637 -45.87983732 204.4203988 -34.89453125 215.890625 C-26.75850304 223.31058396 -17.77160964 228.69496398 -7.3203125 232.23828125 C-6.27230469 232.60566406 -6.27230469 232.60566406 -5.203125 232.98046875 C9.62921706 237.19354646 26.94007541 234.4005277 40.4296875 227.55078125 C55.56273161 218.54729358 67.30945274 205.36922257 72.26855469 188.19946289 C76.44546331 171.28149387 74.37348542 153.03694285 65.5703125 137.96484375 C54.43711411 121.90911549 39.43955421 111.30047198 20.08203125 107.70703125 C-0.84028369 104.82450795 -20.80964144 112.0533225 -35.3203125 127.23828125 Z " fill="#E64B3B" transform="translate(245.3203125,-0.23828125)"/>
<path d="M0 0 C1.42762935 1.17429771 2.84412789 2.3622399 4.25 3.5625 C5.04792969 4.21605469 5.84585938 4.86960937 6.66796875 5.54296875 C24.72768516 20.91472737 38.63669308 45.06122608 41.05151367 68.80737305 C42.20849885 84.86712422 43.16097383 102.37674158 37.25 117.5625 C36.899375 118.62082031 36.54875 119.67914063 36.1875 120.76953125 C31.01236183 135.63008425 22.8487145 148.06834879 12.25 159.5625 C11.66863281 160.22507813 11.08726562 160.88765625 10.48828125 161.5703125 C-1.40605582 174.45334761 -18.18680862 182.68448179 -34.625 188 C-35.38514404 188.24717773 -36.14528809 188.49435547 -36.9284668 188.74902344 C-62.81555494 196.62098908 -92.32631429 191.50053203 -115.94677734 179.44091797 C-141.33106931 165.7287882 -159.13369044 142.38813588 -167.77734375 115.125 C-168.09832031 113.949375 -168.41929687 112.77375 -168.75 111.5625 C-168.93473877 110.93287354 -169.11947754 110.30324707 -169.30981445 109.65454102 C-171.22941796 102.36072991 -171.10326159 94.99555314 -171.0625 87.5 C-171.06067719 86.80963654 -171.05885437 86.11927307 -171.05697632 85.4079895 C-171.01139744 75.17679407 -170.60717226 65.45271168 -167.75 55.5625 C-167.42128906 54.40878906 -167.09257812 53.25507813 -166.75390625 52.06640625 C-158.21864707 25.57461563 -139.1784844 3.60803851 -114.76074219 -9.50585938 C-107.70001968 -13.09346973 -100.42618337 -16.42676992 -92.75 -18.4375 C-91.77160156 -18.71464844 -90.79320312 -18.99179688 -89.78515625 -19.27734375 C-58.62687739 -26.88290788 -25.43054616 -19.21714919 0 0 Z M-110.75 41.5625 C-111.38164062 42.17480469 -112.01328125 42.78710938 -112.6640625 43.41796875 C-124.53074384 55.67672106 -128.26904101 71.8575246 -128.16992188 88.36499023 C-127.75015675 104.19901512 -121.30952482 118.74461755 -110.32421875 130.21484375 C-102.18819054 137.63480271 -93.20129714 143.01918273 -82.75 146.5625 C-81.70199219 146.92988281 -81.70199219 146.92988281 -80.6328125 147.3046875 C-65.80047044 151.51776521 -48.48961209 148.72474645 -35 141.875 C-19.86695589 132.87151233 -8.12023476 119.69344132 -3.16113281 102.52368164 C1.01577581 85.60571262 -1.05620208 67.3611616 -9.859375 52.2890625 C-20.99257339 36.23333424 -35.99013329 25.62469073 -55.34765625 22.03125 C-76.26997119 19.1487267 -96.23932894 26.37754125 -110.75 41.5625 Z " fill="#C0392B" transform="translate(320.75,85.4375)"/>
</svg>
